<svg width="50" height="20" viewBox="0 0 50 20" fill="none" xmlns="http://www.w3.org/2000/svg">
  <path d="M0 8C0 4.22876 0 2.34315 1.17157 1.17157C2.34315 0 4.22876 0 8 0H50V20H8C4.22876 20 2.34315 20 1.17157 18.8284C0 17.6569 0 15.7712 0 12V8Z" fill="#FC6E20"/>
  <path d="M10.904 10.904V8.664C10.904 8.58667 10.9053 8.50533 10.908 8.42C10.9133 8.332 10.9227 8.24133 10.936 8.148L8.924 10.904H10.904ZM12.42 10.904V11.356C12.42 11.4013 12.4053 11.44 12.376 11.472C12.3467 11.504 12.3053 11.52 12.252 11.52H11.588V13H10.904V11.52H8.384C8.32533 11.52 8.276 11.504 8.236 11.472C8.196 11.4373 8.16933 11.3947 8.156 11.344L8.076 10.944L10.852 7.252H11.588V10.904H12.42ZM17.0486 10.128C17.0486 10.6293 16.994 11.064 16.8846 11.432C16.778 11.8 16.63 12.1053 16.4406 12.348C16.254 12.588 16.0326 12.7667 15.7766 12.884C15.5233 13.0013 15.25 13.06 14.9566 13.06C14.6633 13.06 14.3886 13.0013 14.1326 12.884C13.8793 12.7667 13.6593 12.588 13.4726 12.348C13.286 12.1053 13.1393 11.8 13.0326 11.432C12.926 11.064 12.8726 10.6293 12.8726 10.128C12.8726 9.62667 12.926 9.192 13.0326 8.824C13.1393 8.45333 13.286 8.148 13.4726 7.908C13.6593 7.66533 13.8793 7.48533 14.1326 7.368C14.3886 7.25067 14.6633 7.192 14.9566 7.192C15.25 7.192 15.5233 7.25067 15.7766 7.368C16.0326 7.48533 16.254 7.66533 16.4406 7.908C16.63 8.148 16.778 8.45333 16.8846 8.824C16.994 9.192 17.0486 9.62667 17.0486 10.128ZM16.2406 10.128C16.2406 9.696 16.2046 9.33467 16.1326 9.044C16.0633 8.75333 15.9686 8.52 15.8486 8.344C15.7313 8.16533 15.5953 8.03867 15.4406 7.964C15.286 7.88933 15.1246 7.852 14.9566 7.852C14.7886 7.852 14.6273 7.88933 14.4726 7.964C14.318 8.03867 14.1806 8.16533 14.0606 8.344C13.9433 8.52 13.85 8.75333 13.7806 9.044C13.7113 9.33467 13.6766 9.696 13.6766 10.128C13.6766 10.56 13.7113 10.9213 13.7806 11.212C13.85 11.5027 13.9433 11.736 14.0606 11.912C14.1806 12.088 14.318 12.2133 14.4726 12.288C14.6273 12.3627 14.7886 12.4 14.9566 12.4C15.1246 12.4 15.286 12.3627 15.4406 12.288C15.5953 12.2133 15.7313 12.088 15.8486 11.912C15.9686 11.736 16.0633 11.5027 16.1326 11.212C16.2046 10.9213 16.2406 10.56 16.2406 10.128ZM20.1933 8.644C20.1933 8.868 20.1573 9.068 20.0853 9.244C20.0159 9.42 19.9226 9.56933 19.8053 9.692C19.6879 9.812 19.5506 9.90533 19.3932 9.972C19.2386 10.036 19.0759 10.068 18.9053 10.068C18.7213 10.068 18.5506 10.036 18.3933 9.972C18.2386 9.90533 18.1039 9.812 17.9893 9.692C17.8746 9.56933 17.7839 9.42 17.7173 9.244C17.6533 9.068 17.6213 8.868 17.6213 8.644C17.6213 8.41467 17.6533 8.21067 17.7173 8.032C17.7839 7.85333 17.8746 7.70267 17.9893 7.58C18.1039 7.45467 18.2386 7.36 18.3933 7.296C18.5506 7.22933 18.7213 7.196 18.9053 7.196C19.0893 7.196 19.2586 7.22933 19.4133 7.296C19.5706 7.36 19.7066 7.45467 19.8213 7.58C19.9386 7.70267 20.0293 7.85333 20.0933 8.032C20.1599 8.21067 20.1933 8.41467 20.1933 8.644ZM19.5853 8.644C19.5853 8.47333 19.5666 8.32933 19.5293 8.212C19.4946 8.092 19.4466 7.996 19.3853 7.924C19.3239 7.84933 19.2519 7.796 19.1693 7.764C19.0866 7.72933 18.9986 7.712 18.9053 7.712C18.8119 7.712 18.7239 7.72933 18.6413 7.764C18.5586 7.796 18.4866 7.84933 18.4253 7.924C18.3666 7.996 18.3199 8.092 18.2853 8.212C18.2506 8.32933 18.2333 8.47333 18.2333 8.644C18.2333 8.80933 18.2506 8.95067 18.2853 9.068C18.3199 9.18267 18.3666 9.276 18.4253 9.348C18.4866 9.42 18.5586 9.472 18.6413 9.504C18.7239 9.536 18.8119 9.552 18.9053 9.552C18.9986 9.552 19.0866 9.536 19.1693 9.504C19.2519 9.472 19.3239 9.42 19.3853 9.348C19.4466 9.276 19.4946 9.18267 19.5293 9.068C19.5666 8.95067 19.5853 8.80933 19.5853 8.644ZM22.1933 7.384C22.2226 7.34933 22.2559 7.32 22.2933 7.296C22.3333 7.26933 22.3879 7.256 22.4573 7.256H23.0213L18.8053 12.876C18.7759 12.9133 18.7413 12.944 18.7013 12.968C18.6613 12.9893 18.6133 13 18.5573 13H17.9773L22.1933 7.384ZM23.3893 11.644C23.3893 11.868 23.3533 12.068 23.2813 12.244C23.2119 12.42 23.1186 12.5693 23.0013 12.692C22.8839 12.812 22.7466 12.9053 22.5893 12.972C22.4346 13.036 22.2719 13.068 22.1013 13.068C21.9173 13.068 21.7466 13.036 21.5893 12.972C21.4346 12.9053 21.2999 12.812 21.1853 12.692C21.0706 12.5693 20.9799 12.42 20.9133 12.244C20.8493 12.068 20.8173 11.868 20.8173 11.644C20.8173 11.4147 20.8493 11.2107 20.9133 11.032C20.9799 10.8533 21.0706 10.7027 21.1853 10.58C21.2999 10.4547 21.4346 10.36 21.5893 10.296C21.7466 10.232 21.9173 10.2 22.1013 10.2C22.2853 10.2 22.4546 10.232 22.6093 10.296C22.7666 10.36 22.9026 10.4547 23.0173 10.58C23.1346 10.7027 23.2253 10.8533 23.2893 11.032C23.3559 11.2107 23.3893 11.4147 23.3893 11.644ZM22.7813 11.644C22.7813 11.4733 22.7626 11.3293 22.7253 11.212C22.6906 11.0947 22.6426 11 22.5813 10.928C22.5199 10.8533 22.4479 10.8 22.3653 10.768C22.2826 10.7333 22.1946 10.716 22.1013 10.716C22.0053 10.716 21.9159 10.7333 21.8333 10.768C21.7533 10.8 21.6826 10.8533 21.6213 10.928C21.5626 11 21.5159 11.0947 21.4813 11.212C21.4466 11.3293 21.4293 11.4733 21.4293 11.644C21.4293 11.812 21.4466 11.9533 21.4813 12.068C21.5159 12.1827 21.5626 12.276 21.6213 12.348C21.6826 12.42 21.7533 12.472 21.8333 12.504C21.9159 12.536 22.0053 12.552 22.1013 12.552C22.1946 12.552 22.2826 12.536 22.3653 12.504C22.4479 12.472 22.5199 12.42 22.5813 12.348C22.6426 12.276 22.6906 12.1827 22.7253 12.068C22.7626 11.9533 22.7813 11.812 22.7813 11.644ZM31.81 10.128C31.81 10.5573 31.7407 10.952 31.602 11.312C31.466 11.6693 31.2727 11.9787 31.022 12.24C30.7713 12.4987 30.4713 12.7 30.122 12.844C29.7727 12.988 29.3847 13.06 28.958 13.06C28.534 13.06 28.146 12.988 27.794 12.844C27.4447 12.7 27.1447 12.4987 26.894 12.24C26.646 11.9787 26.4527 11.6693 26.314 11.312C26.1753 10.952 26.106 10.5573 26.106 10.128C26.106 9.70133 26.1753 9.308 26.314 8.948C26.4527 8.588 26.646 8.27867 26.894 8.02C27.1447 7.75867 27.4447 7.556 27.794 7.412C28.146 7.26533 28.534 7.192 28.958 7.192C29.3847 7.192 29.7727 7.26533 30.122 7.412C30.4713 7.556 30.7713 7.75867 31.022 8.02C31.2727 8.27867 31.466 8.588 31.602 8.948C31.7407 9.308 31.81 9.70133 31.81 10.128ZM30.938 10.128C30.938 9.78667 30.8913 9.48 30.798 9.208C30.7047 8.936 30.5713 8.70533 30.398 8.516C30.2273 8.32667 30.0193 8.18133 29.774 8.08C29.5313 7.97867 29.2593 7.928 28.958 7.928C28.6567 7.928 28.3833 7.97867 28.138 8.08C27.8953 8.18133 27.6873 8.32667 27.514 8.516C27.3407 8.70533 27.2073 8.936 27.114 9.208C27.0207 9.48 26.974 9.78667 26.974 10.128C26.974 10.472 27.0207 10.78 27.114 11.052C27.2073 11.3213 27.3407 11.5507 27.514 11.74C27.6873 11.9293 27.8953 12.0747 28.138 12.176C28.3833 12.2747 28.6567 12.324 28.958 12.324C29.2593 12.324 29.5313 12.2747 29.774 12.176C30.0193 12.0747 30.2273 11.9293 30.398 11.74C30.5713 11.5507 30.7047 11.3213 30.798 11.052C30.8913 10.78 30.938 10.472 30.938 10.128ZM33.7359 7.948V9.872H36.0399V10.564H33.7359V13H32.8799V7.256H36.4399V7.948H33.7359ZM38.2593 7.948V9.872H40.5633V10.564H38.2593V13H37.4033V7.256H40.9633V7.948H38.2593Z" fill="#EBEBEB"/>
  </svg>
