<svg width="20" height="12" viewBox="0 0 20 12" fill="none" xmlns="http://www.w3.org/2000/svg">
  <path fill-rule="evenodd" clip-rule="evenodd" d="M0.250015 5.81055C0.250015 5.39633 0.585802 5.06055 1.00002 5.06055H19C19.4142 5.06055 19.75 5.39633 19.75 5.81055C19.75 6.22476 19.4142 6.56055 19 6.56055H1.00002C0.585802 6.56055 0.250015 6.22476 0.250015 5.81055Z" fill="#4D4D4D"/>
  <path fill-rule="evenodd" clip-rule="evenodd" d="M0.250011 0.77783C0.251008 0.363617 0.587601 0.0286399 1.00181 0.0296364L13.0018 0.0585067C13.416 0.0595032 13.751 0.396097 13.75 0.810309C13.749 1.22452 13.4124 1.5595 12.9982 1.5585L0.998205 1.52963C0.583992 1.52864 0.249015 1.19204 0.250011 0.77783Z" fill="#4D4D4D"/>
  <path fill-rule="evenodd" clip-rule="evenodd" d="M0.250015 10.8105C0.250015 10.3963 0.585802 10.0605 1.00002 10.0605H19C19.4142 10.0605 19.75 10.3963 19.75 10.8105C19.75 11.2248 19.4142 11.5605 19 11.5605H1.00002C0.585802 11.5605 0.250015 11.2248 0.250015 10.8105Z" fill="#4D4D4D"/>
  </svg>
